<?xml version="1.0" encoding="UTF-8"?>
<svg id="Layer_1" data-name="Layer 1" xmlns="http://www.w3.org/2000/svg" viewBox="0 0 76.1 25.54">
  <defs>
    <style>
      .cls-1 {
        fill: #50763f;
      }

      .cls-2 {
        fill: #f8be1a;
      }
    </style>
  </defs>
  <g>
    <path class="cls-1" d="M11.46,6.82c-.22,0-.41-.04-.61-.13-.56-.29-.63-.71-.61-.98,0-.13.07-.25.13-.33.04-.02.07-.09.09-.04.41.45,1.11-.09,1.19-.74.15-.96-.85-1.98-1.89-2.36-.37-.13-.78-.22-1.19-.22-.78,0-1.54.29-1.93,1.02-.13.27-.22.56-.22.89,0,.98.67,2.32,2.37,4.21l.85.94c1.5,1.65,2.28,2.9,2.28,4.17,0,.51-.13,1.05-.41,1.6-.85,1.72-3.21,3.03-5.86,3.03-.59,0-1.19-.07-1.78-.2C1.3,17.07-.28,15.17.04,13.35c.3-1.8,1.76-2.58,2.91-2.52.69.02,1.09.49,1.19.82.07.18.04.27.02.29h-.02c-.56-.18-1.41.42-1.52,1.25-.15,1.02.72,2.03,1.93,2.52.54.22,1.15.33,1.76.33,1.11,0,2.17-.38,2.58-1.11.15-.27.22-.56.22-.85,0-1.07-.87-2.25-1.69-3.16l-1-1.07c-1.58-1.72-2.37-3.63-2.37-5.26,0-.74.15-1.43.48-2.01.87-1.58,2.45-2.58,4.54-2.58.43,0,.87.04,1.35.13,2.43.47,3.69,2.14,3.69,3.72,0,.33-.07.67-.17.98-.37,1.02-1.48,1.98-2.48,1.98h0Z"/>
    <path class="cls-1" d="M29.25,12.63c-.13,0-.22.09-.28.2-.37.6-.63,1.14-1.11,1.67-.67.71-1.56,1.29-2.54,1.29-.89,0-1.37-.4-1.37-1.34,0-1.47,2.08-5.39,3.67-5.39.26,0,.61.04.61.4-.72-.13-1.45.65-1.45,1.38,0,.36.28.6.63.6.85,0,1.54-1.34,1.54-2.12,0-.85-.69-1.29-1.45-1.29-2.48,0-5.33,2.83-5.88,5.44-.63,1.01-1.53,2.06-2.35,1.65-.3-.13-.39-.63.02-1.56l2.24-5.13c.04-.13.07-.22-.07-.22h-1.54c-.11,0-.2.09-.22.16l-.11.2s-.13-.49-1-.49c-1.85-.02-3.97,2.07-5.08,4.21-.43.83-.87,2.14-.87,3.19,0,.6.15,1.11.54,1.38.24.16.5.22.78.22,1.09,0,2.39-.98,2.89-1.67,0,.58.33,1.76,1.76,1.72,1.31-.05,2.34-.72,3.12-1.58.45,1.16,1.59,1.72,2.92,1.72,1.58,0,3.15-.58,4.19-1.83.39-.47,1.11-1.4,1.11-2.03,0-.38-.33-.78-.69-.78h0ZM18.89,9.98l-1.74,3.88c-.41.91-1.28,1.18-1.78,1.02-.28-.09-.43-.38-.43-.83,0-.51.2-1.22.61-2.11.93-1.96,2.26-2.79,3.02-2.79.37,0,.54.31.33.83h0Z"/>
    <path class="cls-1" d="M43.06,9.67c.37.16.8.42,1.04,1.02.11.24.13.49.13.76,0,1.09-.65,2.34-.65,3.16,0,.31.09.56.35.71.46.31,1.11.07,1.5-.49.3-.42.69-.18.35.53-.43.87-1.17,1.56-1.93,1.87-.3.13-.61.2-.91.2-.5,0-.93-.2-1.28-.62-.24-.31-.3-.76-.3-1.29,0-.78.15-1.74.15-2.61,0-.69-.09-1.31-.43-1.8-.35-.51-1.11-1.27-1.78-1.36,0,0,.04-.16-1.3,3.25-1.3,3.25-3.37,4.32-4.93,4.32-.48,0-.89-.11-1.24-.27-.89-.42-1.09-1.18-1.09-1.78,0-.38.09-.69.11-.82.04-.2.2-.31.33-.33.11,0,.22.07.22.25,0,.38.33.91.87,1,.85.13,2.21-.58,3.21-3.01l2.11-5.15c1.26-3.07,3.21-4.61,4.19-5.19.3-.18.54-.31.76-.4-.22-.04-.46-.07-.69-.09-2.58-.13-4.75,1.09-5.67,2.61-.35.6-.48,1.25-.48,1.78,0,.67.2,1.18.39,1.27.22.11.17.33-.02.45-.11.04-.26.07-.46.02-.39-.09-2.21-.98-1.89-2.96C34.2,1.85,38.61-.13,42.3.02c3.54.16,5.99,2.21,5.99,4.68,0,.33-.04.69-.13,1.02-.59,2.25-3.02,3.48-5.1,3.94h0ZM45.71,4.72c0-1.14-.72-2.21-1.93-2.72-.46.33-1,.78-1.45,1.34-.67.78-1.22,1.85-1.98,3.72l-.35.89c.43.11.93.16,1.45.16.59,0,1.22-.07,1.78-.27,1.02-.33,1.91-1,2.3-2.14.13-.33.17-.67.17-.98h0Z"/>
    <path class="cls-1" d="M52.76,3.9c-.59,0-1.43.73-1.89,1.63-.2.36-.28.69-.28.96,0,.38.2.65.54.65.59,0,1.43-.71,1.89-1.6.2-.36.28-.71.28-.98,0-.4-.2-.65-.54-.65h0Z"/>
    <path class="cls-1" d="M75.84,12.32c-.2-.22-.52-.38-.61-.22-.35.62-1.54,3.43-3,3.1-.28-.07-.37-.27-.37-.58,0-.49.26-1.2.52-1.78l1.56-3.47c.09-.2.02-.36-.17-.47l-1.02-.53c-.26-.13-.52-.09-.8.09,0,0-.17.18-.35.27-.24.09-.39-.02-.43-.11-.02-.09-.02-.13,0-.27,0-.43-.41-1.16-1.32-1-.76.13-1.32.87-1.28,1.69,0,.2.07.38.15.49-.17.47-.46,1.14-.69,1.63-.42.89-.75,1.52-.95,1.9,0,0,0,.01,0,.02-.31.52-.56,1-1,1.45-.65.71-1.54,1.29-2.54,1.29-.89,0-1.41-.4-1.37-1.34l.02-.24c1.87-.58,4.93-2.83,4.93-5.06,0-.87-.67-1.11-1.41-1.11-2.42,0-5.13,2.73-5.79,5.28-.13.21-.26.44-.42.66-.61.89-1.32,1.36-1.95,1.18-.28-.07-.5-.31-.65-.56.74-.78,1.43-1.76,2.06-2.9.56-1,.89-1.94.89-2.65,0-.63-.26-1.05-.83-1.16-1.89-.33-2.8,2.43-2.24,2.18.56-.25.76.11.76.62,0,.45-.15,1-.33,1.43-.61,1.29-2.24,3.39-3.23,3.25-.26-.05-.39-.29-.39-.67,0-.29.09-.65.22-1.05l1.78-5.21c.04-.16-.02-.24-.13-.24h-1.87c-.13,0-.2.07-.22.18l-1.92,5.58c-.59.82-1.32,1.49-2.01,1.15-.3-.13-.41-.63,0-1.56l2.26-5.13c.04-.13.07-.22-.06-.22h-1.8c-.11,0-.2.09-.22.16l-2.54,5.5c-.24.49-.33.96-.33,1.38,0,1.16.8,1.92,2.04,1.87,1-.04,1.83-.43,2.51-1,.24.64.82.98,1.68.87.65-.09,1.35-.36,2-.76.22.33.91.8,1.43.85,1.37.11,2-.38,2.54-.69.29-.17.64-.47.98-.85.43,1.2,1.59,1.72,2.93,1.72,1.58,0,3.17-.58,4.21-1.83.12-.15.28-.35.43-.58,0,0,0,0,0,0,.26-.3,1-1.65,1.49-2.74.33-.67.69-1.54.69-1.54.17-.4.52-.65.89-.76.35-.11.43-.09.65.11.2.18.07.53-.04.8l-1.37,3.05c-.2.43-.3.87-.3,1.32,0,1.07.63,1.98,2.17,1.98,2.02,0,3.73-2.34,4.34-3.83.15-.36,0-.71-.2-.93h0ZM65.77,9.07c.24,0,.37.13.37.36,0,1.47-2.52,3.14-3.69,3.7.35-.98,2.17-4.06,3.32-4.06h0Z"/>
  </g>
  <g>
    <g>
      <path class="cls-1" d="M22.44,25.54c-.36,0-.69-.06-.99-.19-.3-.13-.54-.3-.71-.51-.18-.21-.26-.45-.26-.72v-3c0-.26.09-.5.26-.72.18-.21.41-.38.71-.51.3-.13.63-.19.99-.19s.7.06.99.19c.3.13.53.3.71.51.18.21.26.45.26.72v.89h-1.66v-.96c0-.06-.03-.11-.09-.15-.06-.04-.13-.06-.21-.06-.07,0-.14.02-.2.06-.06.04-.09.09-.09.15v3.15c0,.05.03.1.09.15.06.04.13.06.2.06.08,0,.15-.02.21-.06.06-.04.09-.09.09-.15v-.97h1.66v.89c0,.26-.09.5-.26.72-.18.21-.41.38-.71.51s-.63.19-.99.19h0Z"/>
      <path class="cls-1" d="M27.09,25.54c-.36,0-.69-.06-.99-.19-.3-.13-.54-.3-.71-.51-.18-.21-.26-.45-.26-.72v-3c0-.26.09-.5.26-.72.18-.21.41-.38.71-.51.3-.13.63-.19.99-.19s.69.06.99.19c.3.13.54.3.71.51.18.21.26.45.26.72v3c0,.26-.09.5-.26.72-.18.21-.41.38-.71.51s-.63.19-.99.19ZM27.09,24.47c.08,0,.15-.02.2-.06.05-.04.08-.09.08-.14v-3.3c0-.06-.03-.11-.08-.15-.05-.04-.12-.06-.2-.06s-.15.02-.21.06c-.06.04-.08.09-.08.15v3.3c0,.05.03.1.08.14.06.04.13.06.21.06Z"/>
      <path class="cls-1" d="M29.85,25.46v-5.67h1.35l.95,2.23h.17v-2.23h1.46v5.67h-1.35l-.95-2.23h-.17v2.23h-1.46Z"/>
      <path class="cls-1" d="M36.52,25.54c-.36,0-.69-.06-.99-.19-.3-.13-.54-.3-.71-.51-.18-.21-.26-.45-.26-.72v-.65h1.67v.69c0,.05.03.1.08.15.06.05.13.07.21.07s.15-.02.21-.07c.06-.05.09-.1.09-.15,0-.05,0-.09-.02-.13-.01-.03-.05-.08-.1-.14l-1.35-1.59c-.1-.12-.21-.24-.34-.38-.13-.13-.24-.26-.33-.4-.09-.13-.13-.26-.13-.38v-.03c0-.26.09-.5.26-.72.18-.21.41-.38.71-.51.3-.13.63-.19.99-.19s.7.06.99.19c.3.13.53.3.71.51.18.21.26.45.26.72v.58h-1.66v-.62c0-.06-.03-.11-.09-.15-.06-.04-.13-.06-.21-.06-.07,0-.14.02-.2.06-.06.04-.09.09-.09.15,0,.04,0,.07.03.09.02.02.05.06.08.11l1.39,1.6c.17.2.34.4.5.6.16.2.25.4.25.62v.03c0,.26-.09.5-.26.72-.18.21-.41.38-.71.51s-.63.19-.99.19h0Z"/>
      <path class="cls-1" d="M40.11,25.46v-4.62h-1.07v-1.05h3.81v1.05h-1.07v4.62h-1.68Z"/>
      <path class="cls-1" d="M43.53,25.46v-5.67h1.72c.4,0,.77.07,1.11.21.34.14.6.33.8.58.2.24.3.51.3.81v.95c0,.14-.05.32-.15.55-.1.22-.28.43-.55.6v.12l.7,1.85h-1.68l-.47-1.56h-.1v1.56h-1.67ZM45.2,22.85h.09c.13,0,.25-.03.34-.09.09-.06.14-.2.14-.43v-.97c0-.23-.05-.37-.14-.43-.09-.06-.21-.09-.34-.09h-.09v2.01h0Z"/>
      <path class="cls-1" d="M50.2,25.54c-.36,0-.69-.06-.99-.19-.3-.13-.54-.3-.71-.51-.18-.21-.26-.45-.26-.72v-4.33h1.67v4.41c0,.06.03.11.09.15.06.04.13.06.2.06.08,0,.15-.02.21-.06.06-.04.09-.09.09-.15v-4.41h1.66v4.33c0,.26-.09.5-.26.72-.18.21-.41.38-.71.51s-.63.19-.99.19h0Z"/>
      <path class="cls-1" d="M54.85,25.54c-.36,0-.69-.06-.99-.19-.3-.13-.54-.3-.71-.51-.18-.21-.26-.45-.26-.72v-3c0-.26.09-.5.26-.72.18-.21.41-.38.71-.51.3-.13.63-.19.99-.19s.7.06.99.19.53.3.71.51c.18.21.26.45.26.72v.89h-1.66v-.96c0-.06-.03-.11-.09-.15-.06-.04-.13-.06-.21-.06-.07,0-.14.02-.2.06-.06.04-.09.09-.09.15v3.15c0,.05.03.1.09.15.06.04.13.06.2.06.08,0,.15-.02.21-.06.06-.04.09-.09.09-.15v-.97h1.66v.89c0,.26-.09.5-.26.72-.18.21-.41.38-.71.51s-.63.19-.99.19h0Z"/>
      <path class="cls-1" d="M58.49,25.46v-4.62h-1.07v-1.05h3.81v1.05h-1.07v4.62h-1.68Z"/>
      <path class="cls-1" d="M62.14,25.46v-5.67h1.69v5.67h-1.69Z"/>
      <path class="cls-1" d="M66.46,25.54c-.36,0-.69-.06-.99-.19-.3-.13-.54-.3-.71-.51-.18-.21-.26-.45-.26-.72v-3c0-.26.09-.5.26-.72.18-.21.41-.38.71-.51.3-.13.63-.19.99-.19s.69.06.99.19c.3.13.54.3.71.51.18.21.26.45.26.72v3c0,.26-.09.5-.26.72-.18.21-.41.38-.71.51-.3.13-.63.19-.99.19ZM66.46,24.47c.08,0,.15-.02.2-.06.05-.04.08-.09.08-.14v-3.3c0-.06-.03-.11-.08-.15-.05-.04-.12-.06-.2-.06s-.15.02-.21.06c-.06.04-.08.09-.08.15v3.3c0,.05.03.1.08.14.06.04.13.06.21.06Z"/>
      <path class="cls-1" d="M69.22,25.46v-5.67h1.35l.95,2.23h.17v-2.23h1.46v5.67h-1.35l-.95-2.23h-.17v2.23h-1.46Z"/>
    </g>
    <g>
      <polygon class="cls-2" points="18.73 25.28 14.57 25.28 13.29 19.96 17.44 19.96 18.73 25.28"/>
      <polygon class="cls-2" points="13.55 25.28 9.39 25.28 8.1 19.96 12.26 19.96 13.55 25.28"/>
      <polygon class="cls-2" points="8.4 25.28 4.24 25.28 2.95 19.96 7.11 19.96 8.4 25.28"/>
    </g>
  </g>
</svg>